<svg xmlns="http://www.w3.org/2000/svg" width="1200" height="560" viewBox="0 0 1200 560">
  <rect width="1200" height="560" fill="#0f172a" />
  <text x="600" y="58" text-anchor="middle" font-size="30" font-weight="700" fill="#e5e7eb">좋은 커밋 메시지 흐름 요약</text>
  <text x="600" y="90" text-anchor="middle" font-size="16" fill="#94a3b8">무엇을 바꿨는지 바로 이해되는 짧고 분명한 커밋 메시지는 기록을 읽기 쉽게 만든다</text>
  <rect x="80" y="160" width="300" height="240" rx="22" fill="#111827" stroke="#ef4444" stroke-width="2" />
  <text x="230" y="204" text-anchor="middle" font-size="24" font-weight="700" fill="#f8fafc">나쁜 예</text>
  <text x="230" y="242" text-anchor="middle" font-size="16" fill="#cbd5e1">update</text>
  <text x="230" y="282" text-anchor="middle" font-size="16" fill="#fca5a5">fix</text>
  <text x="230" y="314" text-anchor="middle" font-size="16" fill="#fca5a5">final</text>
  <rect x="450" y="160" width="300" height="240" rx="22" fill="#111827" stroke="#38bdf8" stroke-width="2" />
  <text x="600" y="204" text-anchor="middle" font-size="24" font-weight="700" fill="#f8fafc">좋은 기준</text>
  <text x="600" y="242" text-anchor="middle" font-size="16" fill="#cbd5e1">무엇을 했는지 분명함</text>
  <text x="600" y="282" text-anchor="middle" font-size="16" fill="#93c5fd">한 줄로 이해 가능</text>
  <text x="600" y="314" text-anchor="middle" font-size="16" fill="#93c5fd">작업 단위가 맞음</text>
  <rect x="820" y="160" width="300" height="240" rx="22" fill="#111827" stroke="#34d399" stroke-width="2" />
  <text x="970" y="204" text-anchor="middle" font-size="24" font-weight="700" fill="#f8fafc">좋은 예</text>
  <text x="970" y="242" text-anchor="middle" font-size="16" fill="#cbd5e1">Add login form validation</text>
  <text x="970" y="282" text-anchor="middle" font-size="16" fill="#86efac">Fix null check in user service</text>
  <text x="970" y="314" text-anchor="middle" font-size="16" fill="#86efac">Update README setup steps</text>
  <line x1="380" y1="280" x2="424" y2="280" stroke="#60a5fa" stroke-width="6" stroke-linecap="round" /><circle cx="380" cy="280" r="7" fill="#60a5fa" /><polygon points="442,280 424,271 424,289" fill="#60a5fa" />
  <line x1="750" y1="280" x2="794" y2="280" stroke="#60a5fa" stroke-width="6" stroke-linecap="round" /><circle cx="750" cy="280" r="7" fill="#60a5fa" /><polygon points="812,280 794,271 794,289" fill="#60a5fa" />
  <rect x="100" y="450" width="1000" height="78" rx="16" fill="#111827" stroke="#334155" stroke-width="1.5" />
  <text x="600" y="483" text-anchor="middle" font-size="18" fill="#e5e7eb">핵심 기억: 좋은 커밋 메시지는 길게 멋부리는 문장이 아니라</text>
  <text x="600" y="510" text-anchor="middle" font-size="18" fill="#e5e7eb">무엇을 바꿨는지 바로 이해되는 짧고 분명한 기록이다</text>
</svg>
