<svg xmlns="http://www.w3.org/2000/svg" width="1200" height="520" viewBox="0 0 1200 520">
  <rect width="1200" height="520" fill="#0f172a" />
  <text x="600" y="52" text-anchor="middle" font-size="30" font-weight="700" fill="#e5e7eb">브랜치 개념도</text>
  <text x="600" y="84" text-anchor="middle" font-size="16" fill="#94a3b8">안정적인 main 흐름은 유지하고, 새 기능은 별도 브랜치에서 작업한 뒤 다시 합칠 수 있다</text>

  <rect x="100" y="130" width="1000" height="250" rx="24" fill="#111827" stroke="#334155" stroke-width="2" />
  <line x1="170" y1="285" x2="1030" y2="285" stroke="#94a3b8" stroke-width="6" stroke-linecap="round" />
  <circle cx="240" cy="285" r="12" fill="#e5e7eb" />
  <circle cx="440" cy="285" r="12" fill="#e5e7eb" />
  <circle cx="640" cy="285" r="12" fill="#e5e7eb" />
  <circle cx="840" cy="285" r="12" fill="#e5e7eb" />
  <text x="180" y="332" font-size="20" font-weight="700" fill="#e5e7eb">main</text>
  <text x="240" y="252" text-anchor="middle" font-size="15" fill="#94a3b8">안정 버전</text>
  <text x="840" y="252" text-anchor="middle" font-size="15" fill="#94a3b8">검토 후 병합</text>

  <path d="M 440 285 C 505 205, 580 185, 680 185 C 760 185, 815 220, 840 285" fill="none" stroke="#38bdf8" stroke-width="6" stroke-linecap="round" />
  <circle cx="575" cy="190" r="12" fill="#38bdf8" />
  <circle cx="715" cy="190" r="12" fill="#38bdf8" />
  <text x="640" y="154" text-anchor="middle" font-size="20" font-weight="700" fill="#bfdbfe">feature/login</text>
  <text x="640" y="220" text-anchor="middle" font-size="15" fill="#bfdbfe">새 기능 개발</text>

  <rect x="250" y="420" width="700" height="58" rx="14" fill="#111827" stroke="#334155" stroke-width="1.5" />
  <text x="600" y="456" text-anchor="middle" font-size="18" fill="#e5e7eb">핵심 기억: main은 지키고, 새 기능은 브랜치에서 분리해 안전하게 작업한다</text>
</svg>
